<?xml version="1.0" encoding="UTF-8"?>
<svg version="1.1" xmlns="http://www.w3.org/2000/svg" width="1080" height="1080">
<path d="M0 0 C1.88483093 -0.00143509 1.88483093 -0.00143509 3.80773926 -0.00289917 C7.10990202 -0.00374525 10.41201604 0.00021828 13.71417236 0.00585938 C15.71750401 0.00781129 17.72079185 0.00586371 19.72412109 0.00244141 C23.62860076 -0.00379348 27.53301751 -0.00297283 31.4375 0 C33.19906433 -0.00303635 33.19906433 -0.00303635 34.99621582 -0.00613403 C45.68816391 0.02356055 56.35293543 0.48456874 66.91015625 2.25390625 C68.20501953 2.46724609 69.49988281 2.68058594 70.83398438 2.90039062 C72.14977915 3.12346469 73.4655343 3.34677252 74.78125 3.5703125 C76.1008104 3.79032054 77.42047195 4.00972277 78.74023438 4.22851562 C81.33534091 4.65909384 83.92999562 5.09240486 86.52416992 5.52856445 C89.92572205 6.08488782 93.33080211 6.58661224 96.7421875 7.078125 C104.014746 8.18655284 111.13054045 9.85806837 118.28125 11.5703125 C119.55291016 11.87001953 120.82457031 12.16972656 122.13476562 12.47851562 C125.83197926 13.35302331 129.52597815 14.23974969 133.21875 15.1328125 C134.92490479 15.54345947 134.92490479 15.54345947 136.66552734 15.96240234 C138.25228271 16.35032959 138.25228271 16.35032959 139.87109375 16.74609375 C140.79784912 16.97208252 141.72460449 17.19807129 142.67944336 17.4309082 C145.95348262 18.33590415 149.00805711 19.5826655 152.1328125 20.90234375 C156.40335786 22.60515614 160.74718823 24.07440748 165.09375 25.5703125 C172.59275039 28.17065081 179.95366703 30.9273587 187.21875 34.1328125 C187.85925293 34.41205566 188.49975586 34.69129883 189.15966797 34.97900391 C197.98452029 38.82677788 206.75056929 42.79910905 215.46875 46.8828125 C216.25451416 47.24729492 217.04027832 47.61177734 217.84985352 47.98730469 C222.24250536 50.06236399 226.20635645 52.37073988 230.21875 55.1328125 C231.8316077 56.02999701 233.45681417 56.90535071 235.09375 57.7578125 C245.7984312 63.51850606 255.95534387 70.29150192 266.1796875 76.85546875 C268.17589395 78.15131652 268.17589395 78.15131652 270.21875 79.1328125 C270.21875 79.7928125 270.21875 80.4528125 270.21875 81.1328125 C270.93546875 81.37644531 271.6521875 81.62007813 272.390625 81.87109375 C275.5871375 83.29716217 277.80347175 85.05638463 280.46875 87.3203125 C283.77863897 90.09691709 287.0897962 92.83366718 290.53125 95.4453125 C300.91698902 103.51083323 310.52702969 112.20427947 319.71313477 121.61303711 C322.54142096 124.50272143 325.34595698 127.31244724 328.48046875 129.87109375 C330.78740237 131.77653535 332.63525565 133.58998212 334.53125 135.8828125 C337.09189226 138.89367758 339.75980122 141.69022142 342.59375 144.4453125 C350.70919886 152.50638649 357.46359898 161.69482765 364.40625 170.7578125 C365.08373291 171.64049805 365.76121582 172.52318359 366.45922852 173.43261719 C370.59839731 178.87025913 374.47549888 184.4175434 378.21875 190.1328125 C379.01128459 191.29894572 379.80667342 192.4631464 380.60546875 193.625 C390.30735348 207.83624078 398.74901867 222.6910844 406.25390625 238.16796875 C407.25143552 240.1993745 408.27756502 242.21397677 409.3125 244.2265625 C413.49014209 252.37155943 417.08795298 260.51807103 420.21875 269.1328125 C420.70324335 270.40069228 421.19033647 271.66758091 421.6796875 272.93359375 C426.6498595 285.84082613 430.8442777 298.87045083 434.0546875 312.33203125 C434.94363437 316.05802543 435.9059514 319.76095757 436.8828125 323.46484375 C446.71860271 361.39344876 447.38764034 399.19034279 447.21875 438.1328125 C447.21407715 439.38811768 447.2094043 440.64342285 447.20458984 441.93676758 C446.97193769 470.39722329 442.07600279 497.57137403 435.21875 525.1328125 C434.80471924 526.84307617 434.80471924 526.84307617 434.38232422 528.58789062 C431.08174063 542.21245839 427.44205051 555.36267888 421.98583984 568.28662109 C420.8846062 570.9370122 419.90126543 573.62853391 418.90625 576.3203125 C409.27982139 601.1937619 397.10442239 624.74223312 384.01171875 647.94921875 C383.04857824 649.6593702 382.09650368 651.37730514 381.21875 653.1328125 C380.55875 653.1328125 379.89875 653.1328125 379.21875 653.1328125 C378.94546875 653.86870605 378.6721875 654.60459961 378.390625 655.36279297 C377.28561919 657.97475046 376.05368987 660.1103325 374.46875 662.453125 C373.9428125 663.23558594 373.416875 664.01804687 372.875 664.82421875 C372.3284375 665.62730469 371.781875 666.43039062 371.21875 667.2578125 C370.6721875 668.06863281 370.125625 668.87945313 369.5625 669.71484375 C368.54898214 671.21773176 367.53356883 672.71934456 366.515625 674.21923828 C365.40907772 675.8519788 364.31283036 677.49169195 363.21875 679.1328125 C362.55875 679.1328125 361.89875 679.1328125 361.21875 679.1328125 C360.88875 680.4528125 360.55875 681.7728125 360.21875 683.1328125 C359.55875 683.1328125 358.89875 683.1328125 358.21875 683.1328125 C357.99316406 683.83148437 357.76757812 684.53015625 357.53515625 685.25 C355.93254041 688.75958601 353.68500395 691.39559176 351.15625 694.2578125 C350.14749949 695.42106224 349.13969861 696.5851361 348.1328125 697.75 C347.63426758 698.32459961 347.13572266 698.89919922 346.62207031 699.49121094 C344.69852735 701.74136802 342.86910942 704.06242628 341.03125 706.3828125 C329.43382352 720.62929143 316.23876745 734.26595654 302.21875 746.1328125 C301.26355469 746.95394531 300.30835938 747.77507813 299.32421875 748.62109375 C288.79812024 757.64160974 277.90011046 766.1492609 266.84375 774.5078125 C266.20203857 774.99564209 265.56032715 775.48347168 264.89916992 775.98608398 C253.91432818 784.23428644 253.91432818 784.23428644 248.21875 786.1328125 C247.7647583 786.58720703 247.3107666 787.04160156 246.84301758 787.50976562 C244.8302655 789.52100504 242.71143814 790.70807685 240.23046875 792.1015625 C239.22483887 792.66738037 238.21920898 793.23319824 237.18310547 793.81616211 C236.10174316 794.41565674 235.02038086 795.01515137 233.90625 795.6328125 C232.23393311 796.56395874 232.23393311 796.56395874 230.52783203 797.51391602 C220.68769335 802.95130028 210.71417157 808.07615093 200.59765625 812.97802734 C198.46491024 814.01331969 196.34112475 815.06476925 194.21875 816.12109375 C185.02275233 820.63245301 175.53582003 824.00965053 165.83349609 827.25341797 C163.24345075 828.12450511 160.66236269 829.01856139 158.08203125 829.91796875 C146.05235293 834.07150513 133.91057008 837.44566179 121.56567383 840.52758789 C119.64247961 841.02354113 117.73444306 841.57793338 115.83203125 842.1484375 C101.71461704 845.99447899 86.90731918 848.07003276 72.40625 849.8828125 C71.48465088 849.99810303 70.56305176 850.11339355 69.61352539 850.23217773 C57.24373122 851.69520022 44.84814819 852.29698276 32.40527344 852.63549805 C30.22057621 852.69526254 28.03608572 852.76038182 25.8515625 852.82617188 C21.640998 852.94942498 17.43024668 853.04776197 13.21875 853.1328125 C12.05335693 853.15762695 10.88796387 853.18244141 9.68725586 853.20800781 C0.80041226 853.30818468 -7.97435411 852.71288898 -16.8215332 851.9609375 C-19.21186739 851.75839569 -21.6028632 851.56604746 -23.99414062 851.375 C-36.38377125 850.36309393 -48.73076923 849.29359434 -60.78125 846.1328125 C-62.61245577 845.82807327 -64.44610806 845.53787432 -66.28125 845.2578125 C-73.20787229 844.14398379 -79.94343514 842.41635684 -86.72558594 840.65625 C-88.72146643 840.1480353 -90.72172097 839.66680488 -92.7265625 839.1953125 C-101.46971878 837.12204727 -109.93568407 834.52709656 -118.4296875 831.59765625 C-121.42412077 830.56640663 -124.43089294 829.6525234 -127.4765625 828.78515625 C-133.91568377 826.87120681 -140.08082478 824.3287714 -146.28125 821.7578125 C-146.90432037 821.50014099 -147.52739075 821.24246948 -148.16934204 820.97698975 C-165.2831245 813.87231456 -181.97985953 805.8353291 -197.78125 796.1328125 C-199.9210563 794.85134976 -202.06896141 793.58506196 -204.21875 792.3203125 C-205.20746094 791.73636719 -206.19617188 791.15242187 -207.21484375 790.55078125 C-209.77896415 789.03246404 -209.77896415 789.03246404 -212.78125 788.1328125 C-212.78125 787.4728125 -212.78125 786.8128125 -212.78125 786.1328125 C-213.45027344 785.90722656 -214.11929688 785.68164062 -214.80859375 785.44921875 C-218.65418939 783.74624144 -221.90875247 781.47928246 -225.34375 779.0703125 C-226.05120361 778.57789063 -226.75865723 778.08546875 -227.48754883 777.578125 C-241.14241207 768.0254289 -253.92999534 757.65392234 -266.24487305 746.43408203 C-267.8330113 744.99315498 -269.42779295 743.55947897 -271.03222656 742.13671875 C-277.16813363 736.68830106 -283.06800617 731.03232138 -288.86791992 725.23144531 C-290.34080972 723.7607484 -291.82155265 722.29827716 -293.30273438 720.8359375 C-299.5702829 714.60554217 -305.31715449 708.0856266 -310.78125 701.1328125 C-311.58139526 700.12806885 -311.58139526 700.12806885 -312.39770508 699.10302734 C-313.74213689 697.41089367 -315.07645087 695.7114589 -316.40625 694.0078125 C-316.8693457 693.41581055 -317.33244141 692.82380859 -317.80957031 692.21386719 C-318.72214649 691.04691438 -319.63427873 689.87961422 -320.54589844 688.71191406 C-321.62251892 687.33571223 -322.70526703 685.96430847 -323.7890625 684.59375 C-327.99972563 679.25017302 -331.9543595 673.75730292 -335.78125 668.1328125 C-336.21018555 667.5032666 -336.63912109 666.8737207 -337.08105469 666.22509766 C-350.66969846 646.08591498 -362.78655743 624.73872042 -372.68115234 602.54394531 C-373.65472536 600.41012217 -374.68749108 598.33185176 -375.78125 596.2578125 C-381.75680399 584.45069378 -385.78850804 571.38561243 -389.8684082 558.81933594 C-390.56792973 556.76062106 -391.3073503 554.71542579 -392.06396484 552.67700195 C-395.88215154 542.35896114 -398.79756844 531.96594057 -401.34155273 521.26708984 C-401.96885885 518.63235533 -402.6112964 516.00165378 -403.25585938 513.37109375 C-409.40214038 488.04371313 -413.26467681 462.21775625 -413.78125 436.1328125 C-413.80848145 434.81764648 -413.83571289 433.50248047 -413.86376953 432.14746094 C-414.23767517 412.05617056 -413.67764739 392.41877914 -411.19140625 372.45605469 C-410.8059033 369.33256291 -410.45972624 366.20740207 -410.125 363.078125 C-408.08729574 344.88521779 -404.06040484 326.96521626 -398.76855469 309.44360352 C-397.8004283 306.19712431 -396.89736711 302.93745591 -395.99609375 299.671875 C-393.82686065 292.07056232 -391.22014517 284.66478729 -388.46875 277.2578125 C-388.10600479 276.27551666 -388.10600479 276.27551666 -387.7359314 275.27337646 C-384.08570782 265.40065134 -380.29873093 255.64722399 -375.78125 246.1328125 C-375.4925 245.51970215 -375.20375 244.9065918 -374.90625 244.27490234 C-369.55175216 232.98025845 -363.36106033 222.1714865 -357.07568359 211.37402344 C-356.00420845 209.5188477 -354.96288728 207.64629288 -353.9296875 205.76953125 C-350.81848673 200.32095341 -347.18858212 195.18776957 -343.65625 190.0078125 C-343.27586578 189.44967865 -342.89548157 188.8915448 -342.50357056 188.3164978 C-334.22996596 176.19337943 -325.45418237 164.70960326 -315.81640625 153.640625 C-313.87539114 151.41020878 -311.96660943 149.15969819 -310.08984375 146.875 C-303.78860078 139.2563687 -297.01923169 132.18936067 -290.03125 125.1953125 C-288.70009155 123.86294556 -288.70009155 123.86294556 -287.34204102 122.50366211 C-282.85923467 118.05862868 -278.31833594 113.73697814 -273.52490234 109.62768555 C-271.71069976 108.07232817 -269.93223011 106.48157435 -268.15625 104.8828125 C-263.94782052 101.19526919 -259.54846722 97.76662559 -255.13525391 94.33007812 C-251.38322376 91.40548045 -247.69012997 88.42409429 -244.03125 85.3828125 C-236.68278313 79.34503709 -228.88503654 74.09191513 -220.828125 69.05078125 C-218.71910155 67.72317802 -216.62619582 66.36975134 -214.546875 64.99609375 C-193.66841585 51.33512933 -170.73264041 40.77117092 -147.78125 31.1328125 C-146.25141479 30.48554199 -146.25141479 30.48554199 -144.69067383 29.82519531 C-139.0391505 27.44737971 -133.38363151 25.15174794 -127.59375 23.1328125 C-126.87799805 22.88281494 -126.16224609 22.63281738 -125.42480469 22.37524414 C-106.78750401 15.95160957 -87.64743847 11.16910626 -68.2265625 7.80859375 C-64.78038508 7.18912639 -64.78038508 7.18912639 -61.48803711 6.15527344 C-57.97946564 5.18748727 -54.63123091 4.57795206 -51.02734375 4.09765625 C-49.75955078 3.92814453 -48.49175781 3.75863281 -47.18554688 3.58398438 C-45.87650391 3.41447266 -44.56746094 3.24496094 -43.21875 3.0703125 C-41.93677734 2.89693359 -40.65480469 2.72355469 -39.33398438 2.54492188 C-26.22674893 0.8180221 -13.22527796 -0.02279595 0 0 Z M-85.78125 49.1328125 C-87.32803496 49.53420132 -88.87490228 49.93527292 -90.421875 50.3359375 C-93.88280488 51.24084087 -97.33503938 52.17310828 -100.78125 53.1328125 C-101.85761719 53.43058594 -102.93398438 53.72835937 -104.04296875 54.03515625 C-108.71886976 55.40812196 -113.34320129 56.91240767 -117.96875 58.4453125 C-118.83822266 58.72826172 -119.70769531 59.01121094 -120.60351562 59.30273438 C-132.92433504 63.38553346 -144.55229201 68.82304747 -156.20068359 74.49853516 C-158.538561 75.63637073 -160.88041966 76.7657013 -163.22265625 77.89453125 C-164.73722593 78.62970018 -166.25155732 79.36536028 -167.765625 80.1015625 C-168.45227234 80.43192505 -169.13891968 80.7622876 -169.84637451 81.10266113 C-174.06694457 83.16918138 -178.0463445 85.47223023 -182.00723267 88.00054932 C-184.03174531 89.29269066 -186.09277189 90.50790077 -188.17578125 91.703125 C-188.90345703 92.12464844 -189.63113281 92.54617187 -190.38085938 92.98046875 C-191.87415459 93.84244145 -193.36898633 94.70175695 -194.86523438 95.55859375 C-195.58646484 95.97753906 -196.30769531 96.39648438 -197.05078125 96.828125 C-197.69635986 97.19953613 -198.34193848 97.57094727 -199.00708008 97.95361328 C-200.84822647 99.17732831 -202.22347878 100.57346273 -203.78125 102.1328125 C-205.77357102 103.14802526 -207.77430951 104.14681562 -209.78125 105.1328125 C-217.10444642 110.01855449 -223.96163937 115.57609272 -230.78125 121.1328125 C-232.12703125 122.215625 -232.12703125 122.215625 -233.5 123.3203125 C-238.87363687 127.66752435 -244.09768043 132.13312193 -249.19921875 136.796875 C-251.29162432 138.68985311 -253.40989268 140.53718738 -255.546875 142.37890625 C-259.99602723 146.26430139 -264.17956036 150.38351188 -268.34375 154.5703125 C-269.05982422 155.28251953 -269.77589844 155.99472656 -270.51367188 156.72851562 C-275.1423353 161.36560246 -279.52669492 166.15166316 -283.78125 171.1328125 C-284.24813232 171.67268799 -284.71501465 172.21256348 -285.19604492 172.76879883 C-291.19279812 179.71025359 -296.94067926 186.79654159 -302.4765625 194.109375 C-305.11629094 197.57234078 -307.84296446 200.95933015 -310.6015625 204.328125 C-312.05482587 206.19198725 -312.05482587 206.19198725 -311.78125 209.1328125 C-312.44125 209.1328125 -313.10125 209.1328125 -313.78125 209.1328125 C-313.78125 210.1228125 -313.78125 211.1128125 -313.78125 212.1328125 C-314.44125 212.1328125 -315.10125 212.1328125 -315.78125 212.1328125 C-315.78125 213.1228125 -315.78125 214.1128125 -315.78125 215.1328125 C-316.44125 215.1328125 -317.10125 215.1328125 -317.78125 215.1328125 C-317.78125 216.1228125 -317.78125 217.1128125 -317.78125 218.1328125 C-318.44125 218.1328125 -319.10125 218.1328125 -319.78125 218.1328125 C-320.11125 219.1228125 -320.44125 220.1128125 -320.78125 221.1328125 C-321.44125 221.4628125 -322.10125 221.7928125 -322.78125 222.1328125 C-323.69038431 223.95108113 -324.59327744 225.77262426 -325.47265625 227.60546875 C-326.9478044 230.45448622 -328.62216522 233.11295321 -330.34375 235.8203125 C-337.64111887 247.54529843 -344.43829504 259.94120566 -349.48046875 272.8125 C-350.56802569 275.58854624 -351.70168381 278.33271737 -352.86328125 281.078125 C-357.85084875 292.9232043 -362.27129376 304.76715222 -365.78125 317.1328125 C-366.16192627 318.47230957 -366.16192627 318.47230957 -366.55029297 319.83886719 C-370.46634851 333.81267083 -373.46107759 347.81343814 -375.78125 362.1328125 C-375.91910416 362.96240982 -376.05695831 363.79200714 -376.19898987 364.64674377 C-378.95653755 381.6348749 -379.37918812 398.5603464 -379.34769058 415.72796631 C-379.34369958 417.97368275 -379.34445698 420.21936863 -379.3453064 422.46508789 C-379.33224245 440.81380109 -378.86760497 458.95599097 -376.09375 477.1328125 C-375.9718631 477.9335318 -375.8499762 478.7342511 -375.72439575 479.55923462 C-373.10323209 496.15690031 -368.75197842 512.47843307 -363.96875 528.5703125 C-363.46335693 530.27344604 -363.46335693 530.27344604 -362.94775391 532.01098633 C-360.0338391 541.64230556 -356.6130201 551.01648326 -352.86181641 560.34936523 C-352.04909832 562.44285798 -351.27687434 564.5521409 -350.52490234 566.66821289 C-346.7343485 577.31504181 -341.90906461 587.20087754 -336.65625 597.1953125 C-335.84946416 598.74893573 -335.04347144 600.30297108 -334.23828125 601.85742188 C-329.34143077 611.2809222 -324.27625772 620.46057948 -318.5234375 629.3984375 C-316.96193919 631.84921959 -315.46239032 634.32796593 -313.96875 636.8203125 C-313.246875 637.9134375 -312.525 639.0065625 -311.78125 640.1328125 C-311.12125 640.1328125 -310.46125 640.1328125 -309.78125 640.1328125 C-309.70777344 640.66003906 -309.63429688 641.18726563 -309.55859375 641.73046875 C-308.4619934 645.11945978 -306.43304931 647.73301663 -304.34375 650.5703125 C-303.89781494 651.18430908 -303.45187988 651.79830566 -302.99243164 652.4309082 C-288.74573814 671.94415191 -273.15576993 689.93988109 -256.109375 707.04492188 C-254.40677816 708.75728132 -252.7152092 710.48007849 -251.0234375 712.203125 C-243.41764862 719.88064336 -235.38987384 726.61237178 -226.78125 733.1328125 C-223.3029921 735.88600193 -219.93909144 738.72124122 -216.625 741.66796875 C-214.45317164 743.39346798 -212.16544565 744.70878272 -209.78125 746.1328125 C-208.34003902 747.09146423 -206.90445442 748.05859579 -205.47265625 749.03125 C-185.68136982 762.46787609 -165.58339043 774.25949149 -143.78125 784.1328125 C-142.93304688 784.5242041 -142.08484375 784.9155957 -141.2109375 785.31884766 C-117.09311445 796.40907703 -91.58219213 804.07538315 -65.78125 810.1328125 C-64.46519775 810.44557129 -64.46519775 810.44557129 -63.12255859 810.76464844 C-52.8262053 813.16328819 -42.46831389 814.67499328 -31.96875 815.8828125 C-30.37075562 816.07472168 -30.37075562 816.07472168 -28.74047852 816.27050781 C-17.29704197 817.47588426 -6.49238952 817.1328125 5.21875 817.1328125 C5.21875 745.8528125 5.21875 674.5728125 5.21875 601.1328125 C12.80875 601.1328125 20.39875 601.1328125 28.21875 601.1328125 C28.21875 672.4128125 28.21875 743.6928125 28.21875 817.1328125 C66.95232468 817.1328125 106.22423222 811.45879577 142.78125 798.1953125 C143.49394043 797.94007813 144.20663086 797.68484375 144.94091797 797.421875 C150.33343244 795.47984515 155.70043846 793.47492144 161.03515625 791.37890625 C163.13804465 790.55581251 165.25012739 789.75579103 167.37109375 788.98046875 C187.14833882 781.52718854 206.30347178 771.2878037 224.21875 760.1328125 C225.23582031 759.51019531 226.25289062 758.88757813 227.30078125 758.24609375 C233.22546062 754.55870589 238.88157967 750.5706344 244.48242188 746.41113281 C246.51411761 744.91535682 248.56152573 743.44233005 250.609375 741.96875 C252.22930614 740.79446322 253.84909692 739.61998277 255.46875 738.4453125 C256.20609375 737.91800537 256.9434375 737.39069824 257.703125 736.84741211 C270.86728377 727.24619828 282.63687364 716.04880784 294.10058594 704.51171875 C296.10648626 702.4950076 298.12298998 700.48933889 300.140625 698.484375 C307.29287935 691.3399581 313.99958428 684.11415699 320.21875 676.1328125 C321.3019941 674.79599009 322.38769076 673.46114883 323.4765625 672.12890625 C328.39040315 666.04577582 333.22155008 659.95873751 337.6171875 653.484375 C338.78280894 651.77290156 339.97995518 650.08277058 341.1953125 648.40625 C341.84242188 647.51164063 342.48953125 646.61703125 343.15625 645.6953125 C343.74277344 644.89222656 344.32929687 644.08914063 344.93359375 643.26171875 C346.47715197 641.11921703 346.47715197 641.11921703 346.21875 638.1328125 C346.87875 638.1328125 347.53875 638.1328125 348.21875 638.1328125 C349.54583554 636.22587427 350.77954518 634.2536485 351.96875 632.2578125 C352.62359375 631.16726563 353.2784375 630.07671875 353.953125 628.953125 C354.31011475 628.34863525 354.66710449 627.74414551 355.03491211 627.12133789 C355.8657214 625.72580445 356.70879112 624.33753202 357.56079102 622.95483398 C361.94471681 615.80041383 365.82706857 608.40592027 369.65625 600.9453125 C369.98812317 600.29986481 370.31999634 599.65441711 370.66192627 598.9894104 C372.86029465 594.710299 375.04389937 590.42392335 377.21875 586.1328125 C377.62335449 585.33584961 378.02795898 584.53888672 378.44482422 583.71777344 C386.99510623 566.70165664 393.15919164 548.37904118 398.60742188 530.1640625 C399.15440298 528.34661731 399.72414466 526.53605837 400.296875 524.7265625 C405.28352529 508.42100758 408.12269068 491.38794022 410.31860352 474.50561523 C411.12826124 468.31379002 411.12826124 468.31379002 412.21875 466.1328125 C413.31764804 457.81173926 413.36650973 449.43331868 413.3515625 441.0546875 C413.35251923 439.84443909 413.35347595 438.63419067 413.35446167 437.38726807 C413.3551379 434.84265083 413.35332279 432.29803182 413.34912109 429.75341797 C413.34378382 425.90718609 413.34907558 422.06107197 413.35546875 418.21484375 C413.36219796 400.54786561 412.87265542 383.42875467 410.09375 365.9453125 C409.93185684 364.92392181 409.93185684 364.92392181 409.76669312 363.88189697 C402.01349502 315.47110437 384.97663031 267.41919455 358.21875 226.1328125 C357.82768066 225.52759766 357.43661133 224.92238281 357.03369141 224.29882812 C354.15818939 219.86656917 351.21094146 215.48699913 348.21875 211.1328125 C347.82075195 210.55176758 347.42275391 209.97072266 347.01269531 209.37207031 C338.25917797 196.66118886 328.57627032 184.5745276 318.21875 173.1328125 C317.50589844 172.3284375 316.79304687 171.5240625 316.05859375 170.6953125 C309.92106737 163.8652986 303.51414656 157.32279485 297.03125 150.8203125 C296.18796143 149.97243164 295.34467285 149.12455078 294.47583008 148.25097656 C287.1097069 140.90292709 279.37007988 134.16742656 271.28125 127.6328125 C270.23747192 126.78807373 270.23747192 126.78807373 269.17260742 125.92626953 C259.14112546 116.29470609 259.14112546 116.29470609 247.21875 111.1328125 C247.21875 110.4728125 247.21875 109.8128125 247.21875 109.1328125 C246.22875 109.1328125 245.23875 109.1328125 244.21875 109.1328125 C244.21875 108.4728125 244.21875 107.8128125 244.21875 107.1328125 C242.58232576 106.08405443 240.9074382 105.09515856 239.21875 104.1328125 C237.76790533 103.11538987 236.31730995 102.09760269 234.86962891 101.07568359 C217.66583024 89.09823128 198.27603018 79.75592308 179.21875 71.1328125 C178.06632813 70.58238281 176.91390625 70.03195313 175.7265625 69.46484375 C169.80443226 66.64312287 163.93629117 64.23406404 157.68359375 62.25390625 C154.18515555 61.12194259 150.7280447 59.90224301 147.26586914 58.66503906 C130.7045295 52.76626229 114.24933844 47.79987197 96.93896484 44.65014648 C94.92424662 44.26698476 92.91479103 43.85592078 90.90869141 43.42993164 C81.81253921 41.51256392 72.76698875 40.19805612 63.53027344 39.19750977 C61.21932473 38.94537521 58.91057946 38.67739284 56.6015625 38.40820312 C55.07823116 38.23862696 53.55479643 38.06997644 52.03125 37.90234375 C51.36826904 37.8242598 50.70528809 37.74617584 50.0222168 37.66572571 C45.15245765 37.15495192 40.3136038 37.09344176 35.4206543 37.11283875 C34.72674339 37.1142806 34.03283249 37.11572246 33.31789398 37.117208 C31.61817548 37.12094824 29.91846155 37.12667914 28.21875 37.1328125 C28.21451806 38.01644753 28.21028612 38.90008257 28.20592594 39.81049442 C28.1019452 61.46050145 27.99321693 83.11048028 27.87941074 104.76043797 C27.82448231 115.23082564 27.77107382 125.70121666 27.72143555 136.17163086 C27.67809151 145.31351726 27.63170019 154.45538266 27.58187145 163.5972361 C27.55566688 168.42331756 27.53083695 173.24939596 27.50967598 178.0755024 C27.41052163 200.44622684 27.09226796 222.77757024 26.21875 245.1328125 C19.28875 245.1328125 12.35875 245.1328125 5.21875 245.1328125 C5.21875 176.4928125 5.21875 107.8528125 5.21875 37.1328125 C-25.57964125 37.1328125 -56.02580261 41.26342312 -85.78125 49.1328125 Z " fill="#CD855A" transform="translate(523.78125,117.8671875)"/>
<path d="M0 0 C6.38320776 0.00642444 12.76641648 0.00685191 19.14962697 0.00802541 C29.79020973 0.01074081 40.43078577 0.01690581 51.07136464 0.02595448 C61.99649449 0.03523506 72.92162224 0.04226266 83.84675527 0.0464623 C84.52827544 0.04672502 85.20979562 0.04698774 85.91196793 0.04725843 C89.33337162 0.04856414 92.75477533 0.04982768 96.17617905 0.05107033 C124.24207615 0.06131766 152.3079651 0.07889984 180.37385488 0.10139394 C179.60288704 4.92312344 177.63328952 7.72641394 174.56135488 11.41389394 C173.55055857 12.66253443 172.5415062 13.91258825 171.53401113 15.16389394 C170.74921376 16.134558 170.74921376 16.134558 169.94856191 17.12483144 C167.3923127 20.33341959 164.94632139 23.62202507 162.49885488 26.91389394 C157.68504125 33.36890603 152.81612752 39.77933606 147.91340566 46.16706777 C147.40793202 46.8260204 146.90245839 47.48497304 146.38166738 48.16389394 C145.90794304 48.76844466 145.43421871 49.37299538 144.9461391 49.99586582 C143.35727285 52.05735577 143.35727285 52.05735577 142.08386207 54.20170546 C138.59400778 59.64882356 138.59400778 59.64882356 135.39544511 60.83521152 C133.0231243 61.11485722 130.76668318 61.13813715 128.37861562 61.07447743 C127.4834245 61.08257412 126.58823338 61.09067081 125.66591525 61.09901285 C122.67083401 61.11651412 119.6792377 61.07707748 116.68440175 61.03791738 C114.53563928 61.03897505 112.38687602 61.04360631 110.23812795 61.05154347 C105.61335993 61.06101784 100.98960121 61.04533215 96.364959 61.01016927 C89.05358543 60.95485309 81.74288709 60.95604402 74.43134999 60.96498036 C62.86811849 60.97248432 51.30533513 60.94272305 39.74220347 60.89676142 C19.03238717 60.81475765 -1.67744275 60.77736894 -22.38741899 60.78136969 C-29.65665821 60.78105609 -36.92539001 60.75840512 -44.19451213 60.71783423 C-48.71479966 60.69611576 -53.23500822 60.69050647 -57.7553432 60.68890882 C-59.85240404 60.68465043 -61.9494639 60.67346454 -64.04644656 60.65486264 C-66.90824044 60.63031987 -69.76903668 60.63030918 -72.63090587 60.63624501 C-73.46145378 60.62302764 -74.29200169 60.60981026 -75.14771771 60.59619236 C-80.49484764 60.64136258 -83.27173493 61.75261993 -87.62614512 65.10139394 C-88.28614512 65.10139394 -88.94614512 65.10139394 -89.62614512 65.10139394 C-89.91489512 65.86451894 -90.20364512 66.62764394 -90.50114512 67.41389394 C-91.62614512 70.10139394 -91.62614512 70.10139394 -93.62614512 73.10139394 C-94.51935036 80.69363844 -94.4739934 87.91863092 -89.62614512 94.10139394 C-89.17110606 94.68920644 -88.716067 95.27701894 -88.24723887 95.88264394 C-84.04644379 100.01521265 -79.54444305 100.55172112 -73.87785411 100.74397206 C-73.06370005 100.77881452 -72.24954598 100.81365697 -71.41072059 100.84955525 C-58.28274233 101.34377619 -45.1354355 101.31471958 -31.99969101 101.3717854 C-28.01540793 101.3902868 -24.03116041 101.41460273 -20.04690623 101.43843007 C-10.78080769 101.492975 -1.51468239 101.54125315 7.7514565 101.58837056 C19.48183697 101.64804838 31.21220222 101.70925391 42.94252807 101.77894282 C46.87478299 101.80210725 50.80703095 101.82369873 54.73931623 101.84103322 C63.46662196 101.87993933 72.19297391 101.94605434 80.91973424 102.05192494 C83.99933279 102.08854163 87.07877897 102.11344738 90.15854192 102.13133168 C94.20627133 102.15621701 98.25302808 102.20692679 102.30027425 102.27372003 C103.82498555 102.29508365 105.34983532 102.30848751 106.87469018 102.31280351 C117.64616107 102.35126057 126.31763869 104.1422704 136.37385488 108.10139394 C137.25365797 108.43294736 138.13346107 108.76450078 139.03992486 109.10610127 C148.50068735 112.77337152 156.15931582 119.72664185 163.56135488 126.47639394 C164.13853261 127.00039784 164.71571034 127.52440175 165.31037831 128.06428456 C166.70677328 129.3664547 168.0460965 130.72930659 169.37385488 132.10139394 C169.37385488 132.76139394 169.37385488 133.42139394 169.37385488 134.10139394 C170.03385488 134.10139394 170.69385488 134.10139394 171.37385488 134.10139394 C171.74510488 134.86451894 172.11635488 135.62764394 172.49885488 136.41389394 C173.50682575 138.4728297 174.57309943 140.42788711 175.76838613 142.38655019 C183.23838044 154.92479382 185.05852591 168.17650446 184.89533925 182.4929955 C184.87378802 184.73334436 184.895339 186.97051265 184.92072988 189.21076894 C184.96391561 210.34685401 177.25458113 227.85841672 162.49885488 242.78889394 C161.76843984 243.53107167 161.0380248 244.27324941 160.28547597 245.03791738 C153.09930665 251.96919063 144.80660241 256.44379854 135.49885488 259.91389394 C134.449558 260.31221425 133.40026113 260.71053456 132.31916738 261.12092519 C127.94231271 262.57794179 123.94757655 263.22648191 119.33889985 263.22444177 C118.34314366 263.22643282 117.34738747 263.22842386 116.32145685 263.23047525 C115.23488269 263.22756241 114.14830853 263.22464956 113.02880788 263.22164845 C111.86889044 263.22250288 110.70897299 263.2233573 109.51390654 263.22423762 C106.29854288 263.22559962 103.08321956 263.22247552 99.86786067 263.21745956 C96.39893184 263.21314032 92.93000488 263.21460253 89.46107411 263.21536183 C83.45229769 263.21588613 77.44353212 263.21274913 71.43475842 263.20712399 C62.74708536 263.19899629 54.05941755 263.19639247 45.37174109 263.195136 C31.27649545 263.19294749 17.18125558 263.18629281 3.08601308 263.17683339 C-10.60604392 263.1676541 -24.29809934 263.16057579 -37.9901588 263.15632558 C-38.83416493 263.15606286 -39.67817106 263.15580013 -40.54775313 263.15552945 C-44.78189212 263.15422441 -49.01603111 263.1529607 -53.25017011 263.15171754 C-88.37549924 263.14135116 -123.50082165 263.12373827 -158.62614512 263.10139394 C-157.99239615 261.81590245 -157.35658198 260.53142896 -156.71989512 259.24739003 C-156.36604747 258.53199056 -156.01219981 257.81659108 -155.6476295 257.07951283 C-154.47611652 254.81086142 -153.13868929 252.78250867 -151.62614512 250.72639394 C-148.16200564 245.90054087 -144.85040421 240.98629923 -141.56364512 236.03889394 C-140.82211192 234.92345204 -140.82211192 234.92345204 -140.06559825 233.78547597 C-139.57897716 233.05312734 -139.09235606 232.3207787 -138.59098887 231.56623769 C-138.10452891 230.83453359 -137.61806895 230.10282948 -137.11686778 229.34895253 C-136.09769475 227.81234806 -135.08189657 226.27350126 -134.06901622 224.73274159 C-131.31487981 220.55941286 -128.5119132 216.50258572 -125.37614512 212.60139394 C-124.71098887 211.76608144 -124.04583262 210.93076894 -123.36052012 210.07014394 C-121.62614512 208.10139394 -121.62614512 208.10139394 -119.62614512 207.10139394 C-116.90042573 206.99994827 -114.1999322 206.95974588 -111.47378612 206.96336293 C-110.19442899 206.95913101 -110.19442899 206.95913101 -108.88922626 206.9548136 C-106.01433274 206.94644139 -103.1394776 206.94512709 -100.26457286 206.94367909 C-98.2099402 206.93901267 -96.15530857 206.9338694 -94.10067821 206.92828298 C-89.66666264 206.91698584 -85.23265387 206.90855935 -80.79862857 206.90216374 C-73.78514029 206.89149828 -66.7717005 206.87125617 -59.75824046 206.84904408 C-39.81115517 206.78707467 -19.86407219 206.73313431 0.08308339 206.70002675 C11.09259511 206.68167308 22.10202612 206.65272513 33.11147851 206.61202204 C38.93842991 206.5909598 44.76527962 206.57549591 50.59227109 206.57321477 C56.0776625 206.57106499 61.56284241 206.55516161 67.04816937 206.52882504 C69.05846291 206.52164246 71.0687821 206.51952602 73.07908559 206.52292752 C75.83050909 206.52683833 78.5812624 206.5123156 81.33261037 206.49339223 C82.1221297 206.49892192 82.91164903 206.50445162 83.72509319 206.51014888 C92.21050625 206.40989521 99.38519611 204.22932384 105.37385488 198.10139394 C109.15473386 192.60633216 110.00610551 188.64591533 109.87385488 182.03889394 C109.88932363 181.26223378 109.90479238 180.48557363 109.92072988 179.68537831 C109.87710177 173.24477955 107.88864969 169.63042344 103.30354238 165.01936269 C102.6254955 164.448308 101.94744863 163.87725331 101.24885488 163.28889394 C100.56565175 162.70494863 99.88244863 162.12100331 99.17854238 161.51936269 C92.64755184 156.38787012 81.5123509 157.94028865 73.61701894 157.91194081 C72.36459905 157.90364751 71.11217916 157.8953542 69.82180715 157.88680959 C67.10466054 157.86945137 64.38756776 157.85378491 61.67040181 157.84103322 C57.31164993 157.82048743 52.95295895 157.79285488 48.59425282 157.76435781 C40.0540948 157.70946582 31.51390467 157.66153131 22.97370076 157.61441731 C0.52958772 157.49002697 -21.91425442 157.34878989 -44.35787606 157.15374875 C-48.48073237 157.11829771 -52.60359186 157.08711287 -56.72650814 157.05954814 C-63.61772969 157.01347148 -70.50838173 156.94793003 -77.39919353 156.85967946 C-79.64965014 156.8337404 -81.90019277 156.8142845 -84.15076518 156.80197072 C-105.59630742 156.67596745 -105.59630742 156.67596745 -115.62614512 152.10139394 C-116.38835872 151.78762807 -117.15057231 151.4738622 -117.93588328 151.15058827 C-128.21518314 146.89584721 -135.89640672 140.98478158 -143.62614512 133.10139394 C-144.324817 132.43752675 -145.02348887 131.77365956 -145.74333262 131.08967519 C-152.03277553 125.08366212 -156.12298489 118.73866277 -159.31364512 110.66389394 C-159.7554713 109.59558339 -159.7554713 109.59558339 -160.20622325 108.50569081 C-164.08893458 98.89925222 -165.02591013 90.14581187 -165.05168223 79.85041738 C-165.06347468 77.63343662 -165.11265769 75.41934345 -165.1632545 73.20295644 C-165.33484712 58.08008146 -160.91071821 45.31876366 -153.62614512 32.10139394 C-152.96614512 32.10139394 -152.30614512 32.10139394 -151.62614512 32.10139394 C-151.355442 31.51615956 -151.08473887 30.93092519 -150.80583262 30.32795644 C-143.58500964 16.6992508 -127.91995372 6.90399114 -113.62614512 2.10139394 C-108.09492166 0.92592541 -102.61940023 0.88143826 -96.98965526 0.78842092 C-95.93179777 0.76785992 -94.87394028 0.74729892 -93.7840265 0.72611487 C-90.28022047 0.66028133 -86.7763447 0.60205515 -83.27238536 0.54499745 C-82.05481197 0.5239876 -80.83723859 0.50297775 -79.58276904 0.48133123 C-53.05489087 0.02824943 -26.5310486 -0.03142924 0 0 Z " fill="#CD8559" transform="translate(349.6261451244354,410.8986060619354)"/>
<path d="M0 0 C24.09 0 48.18 0 73 0 C73.0093457 5.33454346 73.01869141 10.66908691 73.02832031 16.1652832 C73.06209511 33.79526584 73.11744658 51.42513203 73.18390274 69.05502033 C73.22366677 79.7434698 73.25607267 90.43184593 73.27099609 101.12036133 C73.28402625 110.43937859 73.31102579 119.75823428 73.35461307 129.07716054 C73.37719713 134.00885298 73.39291251 138.94034637 73.39188385 143.87209511 C73.39113544 148.52036735 73.40915891 153.1682001 73.44116783 157.81635857 C73.4496399 159.51619078 73.45143518 161.21607245 73.44580269 162.91591644 C73.40505872 177.11012617 75.4816162 188.17446294 85.625 198.68359375 C93.34395762 205.84864469 101.2228317 207.59766812 111.52734375 207.50170898 C113.20475143 207.50981346 113.20475143 207.50981346 114.91604614 207.51808167 C118.59013838 207.5305266 122.26344055 207.51410505 125.9375 207.49609375 C128.50382529 207.49624884 131.07015081 207.49773939 133.63647461 207.50050354 C139.00613684 207.50188565 144.3755112 207.48979927 149.74511719 207.46655273 C155.93286798 207.43994784 162.12024363 207.43819879 168.30803204 207.4499411 C174.28655727 207.4607603 180.26491225 207.45439612 186.24343872 207.44038582 C188.77588509 207.43588195 191.30834246 207.43552517 193.84078979 207.43945122 C197.38497228 207.44237403 200.92855031 207.42580423 204.47265625 207.40405273 C205.51084503 207.40855438 206.54903381 207.41305603 207.61868286 207.41769409 C218.4394169 207.30781652 226.07465664 204.41552595 234 197 C241.81161481 188.7312169 243.59397649 177.91426746 243.57421875 166.953125 C243.59498978 165.16310059 243.59498978 165.16310059 243.61618042 163.33691406 C243.65096221 160.01050037 243.6683428 156.68481679 243.67851639 153.35829163 C243.69381342 149.76835408 243.73184652 146.17865181 243.76733398 142.58886719 C243.82971729 135.97726815 243.87753132 129.36566727 243.91894531 122.75390625 C244.00599333 109.10648503 244.14141192 95.45954626 244.2734375 81.8125 C244.53513132 54.54181233 244.77128187 27.27098765 245 0 C268.43 0 291.86 0 316 0 C316.09045916 25.40928251 316.16407436 50.81843369 316.20724869 76.22783661 C316.22783232 88.02711268 316.25587234 99.82628124 316.30175781 111.62548828 C316.34175444 121.91535693 316.3674633 132.20514768 316.37635398 142.49509192 C316.38154706 147.93840021 316.39366444 153.38148573 316.42292023 158.82472229 C316.45029235 163.95962783 316.4584014 169.09422116 316.45243073 174.22919273 C316.45352129 176.10273123 316.46134419 177.97628136 316.4768219 179.84975624 C316.63737335 200.30584025 313.00402917 219.51387496 298.24633789 234.73657227 C296.83258463 236.15939876 295.41632041 237.5797289 294 239 C293.23042969 239.87527344 292.46085937 240.75054688 291.66796875 241.65234375 C286.95519729 246.86288664 282.00721154 250.49675451 275.875 253.8125 C275.23739746 254.16143311 274.59979492 254.51036621 273.94287109 254.86987305 C260.28124229 261.82328756 247.30896256 263.74274935 232.19555664 263.64697266 C230.36857742 263.65376697 228.54160506 263.66268017 226.71464539 263.67352295 C221.8012106 263.6961091 216.88830704 263.68756598 211.97486424 263.67162752 C206.80186871 263.65885834 201.62891492 263.67073911 196.45591736 263.67855835 C187.77204326 263.68762391 179.08838261 263.67574942 170.40454102 263.65185547 C160.40577989 263.62465885 150.40752891 263.63346037 140.40878016 263.6609875 C131.78146766 263.68377639 123.15430753 263.68683084 114.52697462 263.67379415 C109.39296497 263.66605203 104.259194 263.66481189 99.12520027 263.68147659 C94.29443016 263.69606509 89.46430887 263.68564094 84.63360786 263.65700531 C82.87499562 263.65047011 81.11632748 263.65215996 79.35773849 263.66331863 C56.21689324 263.79646178 38.31278944 256.33691744 21.25 240.4375 C20.5075 239.633125 19.765 238.82875 19 238 C18.55527344 237.54882812 18.11054687 237.09765625 17.65234375 236.6328125 C2.50662447 220.39660143 -0.47019074 200.52424722 -0.34057617 179.2565918 C-0.33972841 177.29410821 -0.34020794 175.33162367 -0.34190369 173.36914062 C-0.34275926 168.078672 -0.32520489 162.78841026 -0.30418181 157.49798942 C-0.28534151 151.95536094 -0.2836588 146.41272696 -0.28010559 140.87007141 C-0.27080664 130.39087422 -0.24622212 119.91177169 -0.21605712 109.43261606 C-0.18244597 97.49543293 -0.16601025 85.55824512 -0.15097082 73.6210264 C-0.11967053 49.08061981 -0.06468548 24.54034286 0 0 Z " fill="#CD8559" transform="translate(563,411)"/>
<path d="M0 0 C85.14 0 170.28 0 258 0 C258 52.47 258 104.94 258 159 C239.23306115 159 239.23306115 159 232.6875 157.9375 C231.88626709 157.81318604 231.08503418 157.68887207 230.25952148 157.56079102 C216.7519874 155.29280603 202.72089444 152.1160119 190 147 C188.04270738 146.51320173 186.08515994 146.02730121 184.12451172 145.55419922 C144.44940821 135.20456868 107.98537784 111.88168126 76 87 C74.58267578 85.90365234 74.58267578 85.90365234 73.13671875 84.78515625 C64.64177048 78.02695296 56.82404375 70.51222331 49 63 C48.45746582 62.48083008 47.91493164 61.96166016 47.35595703 61.42675781 C41.595919 55.8886183 36.31310612 50.15278713 31.33203125 43.90625 C28.23043917 40.04094932 25.01899685 36.27403391 21.8046875 32.50244141 C17.84914456 27.85117797 14.21272775 23.45501542 11.2734375 18.09375 C9.04465118 14.42924243 6.39641005 11.0616872 3.8046875 7.6484375 C2 5 2 5 0 0 Z " fill="#CD8559" transform="translate(249,719)"/>
<path d="M0 0 C2.30140714 -0.00135792 4.60281406 -0.00314004 6.90422058 -0.00531006 C13.1016374 -0.00983456 19.2990374 -0.0081164 25.49645448 -0.00493097 C31.99679752 -0.00238544 38.4971392 -0.00475063 44.9974823 -0.00631714 C56.59156201 -0.00824661 68.18563408 -0.00515867 79.77971258 -0.0000578 C90.2896689 0.00442269 100.79961419 0.00362105 111.30957031 -0.00097656 C123.5445179 -0.00632634 135.77945765 -0.00832205 148.01440638 -0.0053643 C154.48091343 -0.00380483 160.94741288 -0.00359912 167.41391945 -0.00690079 C173.48051908 -0.00978277 179.54709778 -0.00779777 185.61369514 -0.00200653 C187.84219579 -0.00068146 190.0706982 -0.00106878 192.29919815 -0.0032692 C195.33379222 -0.00599012 198.3683186 -0.00258812 201.40290833 0.00241089 C202.29014283 0.00018017 203.17737733 -0.00205055 204.09149772 -0.00434887 C205.31039004 -0.00043725 205.31039004 -0.00043725 206.55390644 0.00355339 C207.60405995 0.00379692 207.60405995 0.00379692 208.67542869 0.00404537 C210.76995061 0.13680238 212.63679994 0.56036203 214.65307617 1.12939453 C214.02127162 4.48633196 212.76287182 6.75888291 210.84057617 9.56689453 C210.03620117 10.74445312 210.03620117 10.74445312 209.21557617 11.94580078 C207.97952544 13.67318168 206.67185435 15.34929193 205.34057617 17.00439453 C203.46833144 19.11308237 203.46833144 19.11308237 202.65307617 22.12939453 C201.99307617 22.12939453 201.33307617 22.12939453 200.65307617 22.12939453 C200.41717773 22.66306641 200.1812793 23.19673828 199.93823242 23.74658203 C198.28276854 26.81598316 196.22307109 29.50845878 194.09057617 32.25439453 C193.6480249 32.82697998 193.20547363 33.39956543 192.74951172 33.98950195 C189.32930624 38.36670664 185.72591592 42.5379931 181.95385742 46.61767578 C180.08220749 48.6609201 178.26891129 50.73312227 176.46166992 52.83251953 C172.29860529 57.60136379 167.88031898 62.09413569 163.40307617 66.56689453 C162.56188232 67.40728271 161.72068848 68.2476709 160.85400391 69.11352539 C155.04205253 74.86833758 149.11227185 80.11225184 142.65307617 85.12939453 C140.7325948 86.74988439 138.8161244 88.37513624 136.90307617 90.00439453 C122.43393486 102.00364421 106.94271936 111.75373484 90.65307617 121.12939453 C89.81760254 121.61327637 88.98212891 122.0971582 88.12133789 122.59570312 C68.62041165 133.76669545 47.10424549 141.57188912 25.65307617 148.12939453 C24.97293457 148.34257324 24.29279297 148.55575195 23.59204102 148.77539062 C4.48831259 154.70753034 -19.27871771 161.49768131 -39.34692383 160.12939453 C-43.63842434 155.83789402 -41.4687362 140.2629632 -41.48245239 134.32365417 C-41.48042816 133.03840347 -41.47840393 131.75315277 -41.47631836 130.42895508 C-41.47767775 129.01966304 -41.47946068 127.61037135 -41.48162842 126.20108032 C-41.48613335 122.42302802 -41.48444366 118.64500345 -41.48124933 114.86695075 C-41.47869597 110.89964718 -41.48107089 106.93234579 -41.4826355 102.96504211 C-41.4844458 96.32068459 -41.48207803 89.67633825 -41.47729492 83.03198242 C-41.47182529 75.34502136 -41.47363898 67.65808671 -41.47912133 59.97112626 C-41.48365032 53.35601884 -41.48430494 46.74091939 -41.48168266 40.12581092 C-41.48012244 36.18061216 -41.47991976 32.23542586 -41.48321915 28.29022789 C-41.48609572 24.59407297 -41.48412622 20.89795248 -41.47832489 17.2018013 C-41.47636191 15.1922892 -41.47935097 13.18277421 -41.48245239 11.17326355 C-41.47963257 9.98889709 -41.47681274 8.80453064 -41.47390747 7.58427429 C-41.47353045 6.54884837 -41.47315342 5.51342245 -41.47276497 4.44661999 C-41.34692383 2.12939453 -41.34692383 2.12939453 -40.34692383 1.12939453 C-37.97161932 0.88211455 -35.62646505 0.70440987 -33.24360657 0.57498169 C-32.48852698 0.53285431 -31.73344739 0.49072693 -30.9554866 0.44732296 C-20.64253203 -0.0713287 -10.3230678 -0.01032553 0 0 Z " fill="#CD8559" transform="translate(614.346923828125,718.87060546875)"/>
<path d="M0 0 C0 50.82 0 101.64 0 154 C-85.47 154 -170.94 154 -259 154 C-245.27291602 133.40937403 -229.25121582 115.18184632 -211.8125 97.6875 C-211.33914215 97.21146332 -210.8657843 96.73542664 -210.37808228 96.2449646 C-204.76328313 90.60610463 -199.08229135 85.13240806 -193 80 C-192.39679932 79.48477783 -191.79359863 78.96955566 -191.17211914 78.4387207 C-181.68018922 70.38770063 -171.79846185 63.20966073 -161.32519531 56.49267578 C-158.97689634 54.98516844 -156.64068233 53.46008063 -154.3046875 51.93359375 C-131.73729694 37.30252644 -107.51652621 25.55635621 -82.10644531 16.73632812 C-80.19648405 16.06868288 -78.29676669 15.37190963 -76.3984375 14.671875 C-64.231008 10.33225003 -51.60376533 7.73940883 -39 5 C-38.18805176 4.82162598 -37.37610352 4.64325195 -36.53955078 4.45947266 C-29.39331331 2.90102765 -22.37967145 1.66957579 -15.07421875 1.2109375 C-3.16666667 0 -3.16666667 0 0 0 Z " fill="#CD8559" transform="translate(507,208)"/>
<path d="M0 0 C4.74439949 0.05647259 9.16947265 0.75569091 13.80078125 1.73510742 C14.61337402 1.90081741 15.4259668 2.0665274 16.26318359 2.23725891 C17.97500928 2.58860572 19.68594469 2.94431598 21.39599609 3.30419922 C23.95178861 3.8407279 26.51059208 4.36026375 29.0703125 4.87768555 C39.89737348 7.1015521 50.42964043 9.90450602 60.98828125 13.16088867 C62.67451856 13.64448012 64.36165572 14.12498409 66.05078125 14.59838867 C94.94790792 23.33130641 125.03994008 37.15406151 149.98828125 54.16088867 C151.03242187 54.86987305 152.0765625 55.57885742 153.15234375 56.30932617 C156.45135614 58.56470401 159.72122593 60.85946547 162.98828125 63.16088867 C163.87 63.77448242 164.75171875 64.38807617 165.66015625 65.02026367 C189.41586011 81.86521732 213.30834547 102.81647145 231.171875 125.84057617 C233.11434781 128.32192853 235.18117472 130.64220618 237.30078125 132.97338867 C240.20868551 136.20757352 242.62515 139.50184674 244.98828125 143.16088867 C246.83623108 145.52819694 248.70807016 147.87356909 250.59765625 150.20776367 C251.98828125 152.16088867 251.98828125 152.16088867 251.98828125 154.16088867 C166.84828125 154.16088867 81.70828125 154.16088867 -6.01171875 154.16088867 C-6.03234375 132.99963867 -6.05296875 111.83838867 -6.07421875 90.03588867 C-6.08332275 83.39705566 -6.09242676 76.75822266 -6.10180664 69.91821289 C-6.10632324 61.70214844 -6.10632324 61.70214844 -6.10716248 57.83474731 C-6.10868063 55.1798606 -6.11177015 52.5250245 -6.11729431 49.87014771 C-6.14348293 36.67250488 -6.1383263 23.4859587 -5.56811523 10.2980957 C-5.52925988 9.37517164 -5.49040453 8.45224758 -5.45037174 7.50135612 C-5.07614551 0.01775717 -5.07614551 0.01775717 0 0 Z " fill="#CD8559" transform="translate(579.01171875,208.839111328125)"/>
</svg>
